<svg xmlns="http://www.w3.org/2000/svg">
  <symbol id="headline" viewBox="0 0 26 25">
    <path d="M4.66665 2.08334H21.3333C22.4839 2.08334 23.4166 3.01608 23.4166 4.16668V8.33334C23.4166 9.48394 22.4839 10.4167 21.3333 10.4167H4.66665C3.51605 10.4167 2.58331 9.48394 2.58331 8.33334V4.16668C2.58331 3.01608 3.51605 2.08334 4.66665 2.08334ZM4.66665 4.16668V8.33334H21.3333V4.16668H4.66665ZM23.4166 16.6667V18.75H2.58331V16.6667H23.4166ZM23.4166 20.8333V22.9167H2.58331V20.8333H23.4166Z"/>
    <path d="M23.4166 18.75V16.6667H2.58331V18.75H23.4166Z"/>
    <path d="M23.4166 12.5V14.5833H2.58331V12.5H23.4166Z"/>
  </symbol>
  <symbol id="paragraph" viewBox="0 0 22 15">
    <path d="M15.1666 12.7083V14.7917H0.583313V12.7083H15.1666ZM21.4166 8.54168V10.625H0.583313V8.54168H21.4166ZM15.1666 4.37501V6.45834H0.583313V4.37501H15.1666ZM21.4166 0.208344V2.29168H0.583313V0.208344H21.4166Z"/>
  </symbol>
  <symbol id="image" viewBox="0 0 22 21">
    <path d="M2.66665 14.2352L6.83331 10.0685L10.4791 13.7144L17.25 6.94352L19.3333 9.02686V2.16666H2.66665V14.2352ZM2.66665 17.1815V18.8333H12.6518L6.83331 13.0148L2.66665 17.1815ZM15.5981 18.8333H19.3333V11.9731L17.25 9.8898L11.9523 15.1875L15.5981 18.8333ZM2.66665 0.0833282H19.3333C20.4839 0.0833282 21.4166 1.01607 21.4166 2.16666V18.8333C21.4166 19.9839 20.4839 20.9167 19.3333 20.9167H2.66665C1.51605 20.9167 0.583313 19.9839 0.583313 18.8333V2.16666C0.583313 1.01607 1.51605 0.0833282 2.66665 0.0833282ZM9.95831 3.20833C11.6842 3.20833 13.0833 4.60744 13.0833 6.33333C13.0833 8.05922 11.6842 9.45833 9.95831 9.45833C8.23242 9.45833 6.83331 8.05922 6.83331 6.33333C6.83331 4.60744 8.23242 3.20833 9.95831 3.20833ZM9.95831 5.29166C9.38302 5.29166 8.91665 5.75803 8.91665 6.33333C8.91665 6.90863 9.38302 7.375 9.95831 7.375C10.5336 7.375 11 6.90863 11 6.33333C11 5.75803 10.5336 5.29166 9.95831 5.29166Z"/>
  </symbol>
  <symbol id="arrow" viewBox="0 0 11 14">
    <path d="M6.125 3.38375V13.75H4.875V3.38375L0.941871 7.31688L0.0581207 6.43313L5.5 0.991253L10.9419 6.43313L10.0581 7.31688L6.125 3.38375Z"/>
  </symbol>
  <symbol id="paste" viewBox="0 0 11 15">
    <path d="M6.75001 1.875V3.75H5.50001V1.875H4.25001V4.375H3.00001V1.875H1.75001V5.625H9.25001V1.875H6.75001ZM0.500006 5.625V0.624998H10.5V5.625L10.5 6.25001C10.5 7.1875 10.5 7.1875 10.5 8.1214C10.5055 9.0728 9.97465 9.37394 8.4946 9.81745C7.62712 10.0774 7.37501 10.2202 7.37501 10.3125C7.37501 10.7923 7.41893 11.1144 7.51259 11.489C7.49448 11.4166 7.60123 11.8294 7.6248 11.9394C7.66626 12.1328 7.68751 12.3089 7.68751 12.5C7.68751 13.538 6.71105 14.375 5.50001 14.375C4.28896 14.375 3.31251 13.538 3.31251 12.5C3.31251 12.3089 3.33376 12.1328 3.37521 11.9394C3.39878 11.8294 3.50553 11.4166 3.48742 11.489C3.58108 11.1144 3.62501 10.7923 3.62501 10.3125C3.62501 10.2196 3.37358 10.0771 2.50791 9.81739C1.02983 9.37396 0.500006 9.07373 0.500006 8.125V5.625ZM1.75001 6.875V8.125C1.75001 8.21793 2.00144 8.36041 2.8671 8.62011C4.34519 9.06353 4.87501 9.36376 4.87501 10.3125C4.87501 10.9005 4.81737 11.3231 4.70009 11.7922C4.71128 11.7475 4.61458 12.1214 4.59746 12.2013C4.57338 12.3136 4.56251 12.4037 4.56251 12.5C4.56251 12.8012 4.94022 13.125 5.50001 13.125C6.05979 13.125 6.43751 12.8012 6.43751 12.5C6.43751 12.4037 6.42663 12.3136 6.40255 12.2013C6.38543 12.1214 6.28873 11.7475 6.29992 11.7922C6.18264 11.3231 6.12501 10.9005 6.12501 10.3125C6.12501 9.36418 6.65582 9.06353 8.13311 8.62085L8.1358 8.62005C9.0003 8.361 9.25054 8.21903 9.25001 8.125C9.25001 7.45947 9.25001 7.2664 9.25001 6.875H1.75001Z"/>
  </symbol>
  <symbol id="copy" viewBox="0 0 13 13">
    <path d="M9 9V11.5C9 12.2202 8.47018 12.75 7.75 12.75H1.5C0.779822 12.75 0.25 12.2202 0.25 11.5V5.25C0.25 4.52982 0.779822 4 1.5 4H4V1.5C4 0.779824 4.52982 0.250002 5.25 0.250002H11.5C12.2202 0.250002 12.75 0.779824 12.75 1.5V7.75C12.75 8.47018 12.2202 9 11.5 9H9ZM7.75 9H5.25C4.52982 9 4 8.47018 4 7.75V5.25H1.5V11.5H7.75V9ZM5.25 1.5V7.75H11.5V1.5H5.25Z"/>
  </symbol>
  <symbol id="delete" viewBox="0 0 13 15">
    <path d="M11.6563 1.87501H8.84378V0.937503C8.84378 0.419533 8.42423 0 7.90626 0H5.09377C4.5758 0 4.15627 0.419533 4.15627 0.937503V1.87501H1.34378C0.82581 1.87501 0.406277 2.29454 0.406277 2.81251V3.75001C0.406277 4.2675 0.82581 4.68703 1.34284 4.68751H11.6568C12.1743 4.68703 12.5938 4.2675 12.5938 3.75001V2.81249C12.5938 2.29454 12.1742 1.87501 11.6563 1.87501ZM7.90626 1.87501H5.09377V1.40624C5.09377 1.1475 5.30377 0.937483 5.56251 0.937483H7.43752C7.69626 0.937483 7.90626 1.14748 7.90626 1.40624V1.87501ZM1.34376 13.125C1.34376 14.1605 2.18328 15 3.21876 15H9.78128C10.8167 15 11.6563 14.1605 11.6563 13.125V5.62499H1.34376V13.125ZM8.37504 7.03126C8.37504 6.77251 8.58503 6.5625 8.84378 6.5625C9.10253 6.5625 9.31252 6.77249 9.31252 7.03126V12.6563C9.31252 12.915 9.10253 13.125 8.84378 13.125C8.58503 13.125 8.37504 12.915 8.37504 12.6563V7.03126ZM6.03127 7.03126C6.03127 6.77251 6.24127 6.5625 6.50003 6.5625C6.7588 6.5625 6.96877 6.77249 6.96877 7.03126V12.6563C6.96877 12.915 6.75878 13.125 6.50003 13.125C6.24129 13.125 6.03127 12.915 6.03127 12.6563V7.03126ZM3.68751 7.03126C3.68751 6.77251 3.8975 6.5625 4.15627 6.5625C4.41503 6.5625 4.62503 6.77249 4.62503 7.03126V12.6563C4.62503 12.915 4.41503 13.125 4.15627 13.125C3.8975 13.125 3.68751 12.915 3.68751 12.6563V7.03126Z"/>
  </symbol>
</svg>